HIERARCHY
ROOT root
{
	OFFSET	0	13.1	24.9
	CHANNELS 6  Xposition Yposition Zposition Xrotation Yrotation Zrotation
	JOINT spine_1
	{
		OFFSET	0	9.99999	0
		CHANNELS 3  Xrotation Yrotation Zrotation
		JOINT spine_2
		{
			OFFSET	0	112	-10
			CHANNELS 3  Xrotation Yrotation Zrotation
			JOINT spine_3
			{
				OFFSET	0	206.5	19.3
				CHANNELS 3  Xrotation Yrotation Zrotation
				JOINT spine_4
				{
					OFFSET	0	110.4	14.6
					CHANNELS 3  Xrotation Yrotation Zrotation
					JOINT neck_1
					{
						OFFSET	0	71.8	-50.3
						CHANNELS 3  Xrotation Yrotation Zrotation
						JOINT neck_2
						{
							OFFSET	0	86.2	-25.8
							CHANNELS 3  Xrotation Yrotation Zrotation
							JOINT head_ee
							{
								OFFSET	0	179.8	-8.7
								CHANNELS 3  Xrotation Yrotation Zrotation
								End Site
								{
									OFFSET	1	0	0
								}
							}
						}
					}
					JOINT left_clavicle
					{
						OFFSET	-43.2	22.4	-70.8
						CHANNELS 3  Xrotation Yrotation Zrotation
						JOINT left_shoulder
						{
							OFFSET	-93.9	-5.79999	48.7
							CHANNELS 3  Xrotation Yrotation Zrotation
							JOINT left_elbow
							{
								OFFSET	-291.4	-30.8	15.2
								CHANNELS 3  Xrotation Yrotation Zrotation
								JOINT left_lowarm_twist
								{
									OFFSET	-110.7	-3.89999	13.6
									CHANNELS 3  Xrotation Yrotation Zrotation
									JOINT left_hand
									{
										OFFSET	-110.7	-3.89999	13.6
										CHANNELS 3  Xrotation Yrotation Zrotation
										JOINT left_ee
										{
											OFFSET	-80.8	-5.10001	12.1
											CHANNELS 3  Xrotation Yrotation Zrotation
											End Site
											{
												OFFSET	1	0	0
											}
										}
									}
								}
							}
						}
					}
					JOINT right_clavicle
					{
						OFFSET	43.2	22.4	-70.8
						CHANNELS 3  Xrotation Yrotation Zrotation
						JOINT right_shoulder
						{
							OFFSET	93.9	-5.79999	48.7
							CHANNELS 3  Xrotation Yrotation Zrotation
							JOINT right_elbow
							{
								OFFSET	291.4	-30.8	15.2
								CHANNELS 3  Xrotation Yrotation Zrotation
								JOINT right_lowarm_twist
								{
									OFFSET	110.7	-3.89999	13.6
									CHANNELS 3  Xrotation Yrotation Zrotation
									JOINT right_hand
									{
										OFFSET	110.7	-3.89999	13.6
										CHANNELS 3  Xrotation Yrotation Zrotation
										JOINT right_ee
										{
											OFFSET	80.8	-5.10001	12.1
											CHANNELS 3  Xrotation Yrotation Zrotation
											End Site
											{
												OFFSET	1	0	0
											}
										}
									}
								}
							}
						}
					}
				}
			}
		}
	}
	JOINT left_hip
	{
		OFFSET	-82.8	-127.5	0.300001
		CHANNELS 3  Xrotation Yrotation Zrotation
		JOINT left_knee
		{
			OFFSET	-28.2	-396.7	2.2
			CHANNELS 3  Xrotation Yrotation Zrotation
			JOINT left_ankle
			{
				OFFSET	-11.7	-411.3	35.4
				CHANNELS 3  Xrotation Yrotation Zrotation
				JOINT left_toes
				{
					OFFSET	0	-60	-88.6
					CHANNELS 3  Xrotation Yrotation Zrotation
					JOINT left_foot_ee
					{
						OFFSET	-22.5	-16.5	-42.2
						CHANNELS 3  Xrotation Yrotation Zrotation
						End Site
						{
							OFFSET	1	0	0
						}
					}
				}
			}
		}
	}
	JOINT right_hip
	{
		OFFSET	82.8	-127.5	0.300001
		CHANNELS 3  Xrotation Yrotation Zrotation
		JOINT right_knee
		{
			OFFSET	28.2	-396.7	2.2
			CHANNELS 3  Xrotation Yrotation Zrotation
			JOINT right_ankle
			{
				OFFSET	11.7	-411.3	35.4
				CHANNELS 3  Xrotation Yrotation Zrotation
				JOINT right_toes
				{
					OFFSET	0	-60	-88.6
					CHANNELS 3  Xrotation Yrotation Zrotation
					JOINT right_foot_ee
					{
						OFFSET	22.5	-16.5	-42.2
						CHANNELS 3  Xrotation Yrotation Zrotation
						End Site
						{
							OFFSET	1	0	0
						}
					}
				}
			}
		}
	}
}
MOTION
Frames: 12
Frame Time: 0.02
1115.22 717.677 -1583.25 -35.6149 68.066 29.6715 7.40504 0.323562 1.84789 7.40692 0.205341 1.86472 7.41069 0.0511937 1.87529 7.40595 0.346667 1.84369 -15.8785 0.136273 -4.55345 -15.8286 2.89995 -4.23923 -0.0 0.0 -0.0 -6.41842 23.0437 -6.27681 -25.4785 -22.2494 67.4182 0.685384 -18.7534 0.113179 -9.93572 -0.454107 1.18475 3.84082 10.1669 30.3523 -0.0 0.0 -0.0 10.743 -1.96899 -21.0665 -21.1939 40.1797 -48.5211 0.938212 24.9269 -0.207373 -6.01944 0.250577 -0.727189 -4.10887 5.64587 31.688 0.0 0.0 0.0 32.2188 0.454899 -0.161961 6.08769 -0.298114 -0.885899 1.80616 11.8752 -0.263642 2.2388 -0.0 -0.0 -0.0 0.0 -0.0 8.87107 -4.92218 4.26859 -7.53509 -0.236115 -1.13148 36.4754 1.82574 4.57549 -15.773 0.0 0.0 0.0 0.0 0.0 
1100.09 716.674 -1581.02 -36.9792 68.9724 31.7484 7.28683 0.237403 1.83603 7.2887 0.120111 1.84741 7.28978 -0.0362757 1.85096 7.28509 0.256454 1.83347 -13.0613 -1.07549 -4.42499 -13.0064 0.728071 -4.54547 -0.0 0.0 -0.0 -6.67083 22.2655 -6.8789 -23.3875 -23.2343 69.1078 0.691133 -18.8996 0.115035 -10.5008 -0.486047 1.2496 3.55009 12.0259 28.7644 -0.0 0.0 -0.0 10.4688 -2.91579 -20.4349 -22.5734 39.6644 -47.7575 0.986639 26.0466 -0.228212 -4.71686 0.189885 -0.572091 -3.82234 5.97378 29.6106 0.0 0.0 0.0 31.2938 0.516395 -0.002692 5.60093 -0.270822 -0.816256 2.18913 11.3079 -0.319051 3.91914 -0.0 -0.0 -0.0 0.0 -0.0 8.66699 -3.64395 4.19819 -9.58765 -0.27446 -1.44409 39.0604 3.69702 4.83169 -14.8828 0.0 0.0 0.0 0.0 0.0 
1081.21 722.497 -1574.32 -35.4011 68.4638 30.1232 7.0879 0.306623 1.81503 7.08971 0.190527 1.83086 7.09316 0.0290049 1.84051 7.08857 0.319267 1.81285 -12.5125 -1.8893 -5.13183 -12.4383 -0.32394 -5.46106 -0.0 0.0 -0.0 -7.06219 22.8254 -7.26776 -21.7289 -24.5531 70.2418 0.702628 -19.1911 0.118786 -10.6853 -0.496612 1.2707 3.26985 13.4649 27.1619 -0.0 0.0 -0.0 10.3173 -4.14908 -20.0331 -23.6184 39.0845 -47.4004 0.966149 25.5754 -0.219291 -5.00111 0.202827 -0.606052 -3.35229 7.08502 26.5652 0.0 0.0 0.0 28.9009 0.472556 1.00135 3.13832 -0.1419 -0.460577 -4.01434 11.1649 0.593212 3.9084 -0.0 -0.0 -0.0 0.0 -0.0 8.86907 -2.93947 4.4104 -10.6901 -0.290425 -1.6125 35.9274 -0.947682 4.50146 -14.6045 0.0 0.0 0.0 0.0 0.0 
1057.88 724.18 -1569.81 -31.9997 68.0605 26.6478 7.03822 0.306108 1.70593 7.03982 0.196951 1.72195 7.04342 0.0434686 1.73262 7.03937 0.316518 1.70403 -12.3549 -2.78686 -4.74045 -12.2948 -2.26343 -5.34106 -0.0 0.0 -0.0 -7.27424 23.5657 -7.32834 -20.1502 -26.8601 70.873 0.736454 -20.0428 0.130142 -10.7767 -0.501876 1.28115 3.07179 14.4912 26.0563 -0.0 0.0 -0.0 10.301 -4.53005 -19.9694 -23.9782 38.6455 -47.942 0.914481 24.3705 -0.197476 -5.17802 0.210967 -0.627156 -3.0354 7.73334 24.5053 0.0 0.0 0.0 27.7826 0.848828 1.42388 0.616894 -0.0258935 -0.0911246 -4.19298 12.696 0.6208 6.62202 -0.0 -0.0 -0.0 0.0 -0.0 7.06084 -2.59237 4.78297 -12.077 -0.305903 -1.82474 36.6341 -4.37922 4.55504 -14.0553 0.0 0.0 0.0 0.0 0.0 
1041.05 731.653 -1563.84 -30.9266 68.841 25.9294 6.73934 0.363691 1.73058 6.74097 0.25285 1.75021 6.74645 0.0875112 1.76621 6.74229 0.36531 1.73024 -11.9707 -2.87253 -5.2666 -11.8951 -2.04948 -5.86427 -0.0 0.0 -0.0 -7.23646 23.4478 -7.31371 -19.0433 -26.1754 71.9922 0.757033 -20.5566 0.137282 -10.7919 -0.50275 1.28288 2.84613 15.1426 24.6713 -0.0 0.0 -0.0 10.1493 -5.30856 -19.6031 -25.9929 38.0023 -47.6466 0.880044 23.5544 -0.183489 -5.57459 0.229452 -0.674374 -2.92411 7.94955 23.7839 0.0 0.0 0.0 26.8587 0.282295 1.74255 0.0156063 -0.000643118 -0.00230857 -5.9688 11.5073 0.885449 6.48422 -0.0 -0.0 -0.0 0.0 -0.0 6.07333 -2.3466 5.12449 -12.9389 -0.312931 -1.9568 35.3231 -2.56534 4.4356 -14.0371 0.0 0.0 0.0 0.0 0.0 
1028.2 735.845 -1566.53 -28.2668 69.0286 23.1251 6.55329 0.3572 1.5609 6.55461 0.257165 1.58046 6.55995 0.102532 1.59795 6.55656 0.353582 1.56172 -11.7319 -3.48206 -3.45759 -11.7083 -4.35464 -4.28903 -0.0 0.0 -0.0 -7.3797 24.0701 -7.30865 -18.8621 -27.6763 71.5159 0.790541 -21.3858 0.149275 -10.909 -0.509519 1.29625 2.66199 15.6128 23.5435 -0.0 0.0 -0.0 10.3758 -5.62205 -20.0232 -27.182 37.4506 -47.909 0.845631 22.7287 -0.169964 -5.27015 0.215232 -0.638137 -2.80803 5.75684 21.9067 0.0 0.0 0.0 26.2355 0.192702 1.6384 -3.11813 0.115767 0.464473 -5.43849 10.2175 0.805308 7.61994 -0.0 -0.0 -0.0 0.0 -0.0 4.89526 -2.19478 5.34702 -11.4937 -0.300019 -1.73543 34.4315 -7.33013 4.34477 -13.575 0.0 0.0 0.0 0.0 0.0 
1019.74 738.434 -1564.18 -27.5136 68.8855 22.5656 6.39989 0.411038 1.48248 6.40105 0.315882 1.50562 6.40784 0.164196 1.52961 6.4048 0.403681 1.4845 -12.3382 -3.14956 -2.42869 -12.3329 -4.42811 -3.22982 -0.0 0.0 -0.0 -8.06654 24.0451 -8.28791 -18.6171 -28.4877 71.3127 0.831944 -22.3974 0.164712 -10.1235 -0.46465 1.20633 2.55779 14.8306 22.5992 -0.0 0.0 -0.0 10.4445 -5.32486 -20.1864 -28.1839 36.7004 -47.8473 0.841861 22.6376 -0.16851 -5.24236 0.213944 -0.634825 -2.25883 6.54791 18.3288 0.0 0.0 0.0 25.4558 0.122774 1.63535 -4.09675 0.146864 0.611441 -2.17285 10.0505 0.319663 9.42435 -0.0 -0.0 -0.0 0.0 -0.0 4.89494 -2.67294 5.01344 -9.90054 -0.279321 -1.49186 34.6904 -10.492 4.38407 -12.766 0.0 0.0 0.0 0.0 0.0 
1007.58 744.169 -1561.58 -26.9133 68.716 22.2949 6.1826 0.459812 1.43047 6.18367 0.367866 1.45682 6.19169 0.215193 1.48705 6.18888 0.447321 1.43442 -11.4596 -3.50064 -2.41685 -11.4557 -5.04806 -3.28249 -0.0 0.0 -0.0 -8.22554 24.0396 -8.51591 -18.1464 -28.6996 71.9864 0.874458 -23.4211 0.181263 -10.7117 -0.49813 1.27372 2.08067 16.0898 19.7874 -0.0 0.0 -0.0 10.3167 -5.11977 -19.9507 -29.1513 35.8458 -48.3394 0.804652 21.7322 -0.15446 -5.0862 0.206734 -0.616206 -2.10926 5.14022 16.6276 0.0 0.0 0.0 26.655 0.0450733 1.44827 -6.81413 0.21999 1.02201 -4.7516 11.7992 0.703537 8.37418 -0.0 -0.0 -0.0 0.0 -0.0 4.58721 -1.95056 4.80353 -9.58391 -0.274401 -1.44352 35.2754 -10.9561 4.44479 -13.1268 0.0 0.0 0.0 0.0 0.0 
1003.45 739.882 -1562.5 -25.2304 68.9601 21.7075 5.95993 0.459888 1.35159 5.96087 0.372959 1.37811 5.96873 0.222913 1.41017 5.96623 0.442805 1.35728 -11.4501 -3.78399 -2.60954 -11.4456 -5.45809 -3.54485 -0.0 0.0 -0.0 -7.39442 23.1531 -7.63786 -21.6624 -30.9277 68.6396 1.01976 -26.8004 0.242951 -8.23814 -0.362036 0.988101 1.05745 14.9758 12.7907 -0.0 0.0 -0.0 10.4913 -2.7502 -20.4931 -28.9045 35.4007 -50.3589 0.728144 19.8344 -0.127309 -2.58493 0.0982202 -0.315433 -2.13399 0.468637 14.6269 0.0 0.0 0.0 31.29 -1.26808 0.386857 -18.2321 0.31249 2.76864 1.05468 13.0521 -0.154463 10.9094 -0.0 -0.0 -0.0 0.0 -0.0 5.81136 -2.00518 4.06145 -15.9811 -0.321844 -2.42341 40.2476 -12.1479 4.91778 -14.0271 0.0 0.0 0.0 0.0 0.0 
990.141 736.55 -1565.55 -26.6439 69.6828 23.7603 5.88965 0.316634 1.30506 5.89056 0.232955 1.32256 5.8949 0.0879099 1.34004 5.89252 0.298423 1.30935 -8.96139 -2.0565 -0.180575 -8.96414 -3.72919 -0.65518 -0.0 0.0 -0.0 -8.72691 23.1649 -9.56514 -18.2755 -30.1995 70.5061 1.00938 -26.5652 0.238289 -8.3486 -0.367848 1.00098 1.10923 14.3455 12.8997 -0.0 0.0 -0.0 10.5857 -3.18808 -20.6514 -29.4782 34.8192 -51.075 0.649844 17.8442 -0.10202 -2.94866 0.113181 -0.359456 -1.28294 1.10959 9.09719 0.0 0.0 0.0 31.7638 -2.30145 -0.105841 -23.152 0.244908 3.5203 6.45244 10.5552 -0.928679 9.95337 -0.0 -0.0 -0.0 0.0 -0.0 7.98974 -0.230559 3.778 -20.3732 -0.291015 -3.09644 41.0793 -17.6693 5.07579 -10.1492 0.0 0.0 0.0 0.0 0.0 
981.714 739.497 -1566.67 -24.8623 69.7746 22.3598 5.48918 0.250247 1.28285 5.49008 0.168116 1.29617 5.49297 0.0171358 1.30691 5.49066 0.223306 1.28781 -7.21567 -1.38962 0.812823 -7.21333 -3.16822 0.525584 -0.0 0.0 -0.0 -8.71437 22.9157 -9.64127 -17.7594 -30.9682 70.1094 1.03405 -27.1226 0.249431 -7.57894 -0.327863 0.911028 0.762789 13.1364 10.2444 -0.0 0.0 -0.0 10.616 -2.4948 -20.7667 -29.8661 34.5982 -51.856 0.57916 16.0083 -0.0814388 -2.16031 0.0811088 -0.263922 -0.782791 0.603831 5.49827 0.0 0.0 0.0 32.4535 -3.39017 -0.5092 -27.8737 0.119617 4.23388 13.0684 10.3364 -1.83896 10.8224 -0.0 -0.0 -0.0 0.0 -0.0 10.1038 -0.969885 3.34843 -21.7523 -0.270703 -3.30707 42.0777 -21.7067 5.26085 -8.47445 0.0 0.0 0.0 0.0 0.0 
975.734 736.872 -1565.52 -26.4151 68.9834 24.518 5.49811 0.0907143 0.991287 5.49865 0.0274555 0.99505 5.49859 -0.0876921 0.991559 5.49722 0.0699987 0.992965 -7.50068 -1.3571 0.814239 -7.49866 -3.1087 0.525776 -0.0 0.0 -0.0 -8.93313 23.484 -9.74379 -18.6944 -31.5571 69.3894 1.05449 -27.5803 0.258823 -7.0438 -0.300777 0.848178 0.484018 12.1092 8.07507 -0.0 0.0 -0.0 10.4551 -2.1949 -20.4596 -29.3205 34.3607 -53.0757 0.545117 15.1116 -0.0723069 -1.68645 0.0624656 -0.206292 -0.441465 0.357005 3.10264 0.0 0.0 0.0 33.0983 -5.59792 -0.671914 -28.8567 0.0861549 4.38104 16.4494 8.21134 -2.28145 9.77592 -0.0 -0.0 -0.0 0.0 -0.0 11.7406 0.956583 3.24287 -23.6744 -0.233946 -3.59972 42.5528 -24.4841 5.38863 -6.70785 0.0 0.0 0.0 0.0 0.0 
